<?xml version="1.0" standalone="no"?>
<!DOCTYPE svg PUBLIC "-//W3C//DTD SVG 20010904//EN"
 "http://www.w3.org/TR/2001/REC-SVG-20010904/DTD/svg10.dtd">
<svg version="1.0" xmlns="http://www.w3.org/2000/svg"
 width="152.000000pt" height="152.000000pt" viewBox="0 0 152.000000 152.000000"
 preserveAspectRatio="xMidYMid meet">
<metadata>
Created by potrace 1.11, written by Peter Selinger 2001-2013
</metadata>
<g transform="translate(0.000000,152.000000) scale(0.100000,-0.100000)"
fill="#000000" stroke="none">
<path d="M610 1349 c-202 -52 -356 -194 -427 -393 -22 -63 -28 -112 -27 -216
4 -332 286 -599 619 -586 49 2 101 6 114 10 234 56 410 232 467 467 4 13 8 66
9 118 9 274 -174 522 -440 598 -82 24 -228 25 -315 2z m106 -191 c63 -63 54
-165 -20 -213 -64 -42 -158 -21 -194 44 -44 78 -15 164 68 203 8 4 37 6 63 4
40 -3 55 -10 83 -38z m406 -134 c53 -25 73 -60 73 -126 0 -46 -4 -61 -25 -83
-54 -58 -126 -70 -185 -31 -62 41 -82 128 -43 186 42 63 116 85 180 54z m-298
-199 c59 -55 19 -155 -63 -155 -55 0 -91 36 -91 90 0 54 36 90 90 90 25 0 45
-8 64 -25z m-304 -80 c91 -47 104 -167 24 -233 -87 -72 -224 -7 -224 107 0
101 112 172 200 126z m426 -155 c76 -25 114 -113 80 -188 -48 -103 -190 -109
-246 -10 -62 111 44 238 166 198z"/>
</g>
</svg>
